<?xml version="1.0" encoding="UTF-8" standalone="no"?>
<!-- Created with Inkscape (http://www.inkscape.org/) -->

<svg
   xmlns:dc="http://purl.org/dc/elements/1.1/"
   xmlns:cc="http://creativecommons.org/ns#"
   xmlns:rdf="http://www.w3.org/1999/02/22-rdf-syntax-ns#"
   xmlns:svg="http://www.w3.org/2000/svg"
   xmlns="http://www.w3.org/2000/svg"
   xmlns:sodipodi="http://sodipodi.sourceforge.net/DTD/sodipodi-0.dtd"
   xmlns:inkscape="http://www.inkscape.org/namespaces/inkscape"
   width="382.68875"
   height="382.91281"
   id="svg2"
   version="1.1"
   inkscape:version="0.48.5 r10040"
   sodipodi:docname="svg_logo.svg">
  <defs
     id="defs4" />
  <sodipodi:namedview
     id="base"
     pagecolor="#ffffff"
     bordercolor="#666666"
     borderopacity="1.0"
     inkscape:pageopacity="0.0"
     inkscape:pageshadow="2"
     inkscape:zoom="0.35"
     inkscape:cx="46.421249"
     inkscape:cy="321.45641"
     inkscape:document-units="px"
     inkscape:current-layer="layer1"
     showgrid="false"
     inkscape:window-width="1366"
     inkscape:window-height="664"
     inkscape:window-x="-8"
     inkscape:window-y="-8"
     inkscape:window-maximized="1"
     fit-margin-top="0"
     fit-margin-left="0"
     fit-margin-right="0"
     fit-margin-bottom="0" />
  <metadata
     id="metadata7">
    <rdf:RDF>
      <cc:Work
         rdf:about="">
        <dc:format>image/svg+xml</dc:format>
        <dc:type
           rdf:resource="http://purl.org/dc/dcmitype/StillImage" />
        <dc:title></dc:title>
      </cc:Work>
    </rdf:RDF>
  </metadata>
  <g
     inkscape:label="Layer 1"
     inkscape:groupmode="layer"
     id="layer1"
     transform="translate(-328.57875,-495.19149)">
    <g
       transform="matrix(3.1894606,0,0,3.1894606,315.77439,434.5397)"
       id="g2987">
      <path
         style="fill:#eba71f"
         d="M 57.495213,128.58612 C 54.091583,125.18249 53.31427,121.25993 55.342951,117.72516 56.571486,115.58456 57,112.34446 57,105.19578 L 57,95.553639 50,102.5 c -3.85,3.8205 -7,7.68524 -7,8.58832 0,2.86746 -3.943136,6.81039 -7.472981,7.47259 C 29.62009,119.66906 24,114.80659 24,108.58781 c 0,-3.24347 3.42706,-7.24362 7.301269,-8.52222 1.798498,-0.593561 6.165961,-4.001137 9.705475,-7.572394 L 47.442223,86 37.87475,86 c -6.758757,0 -10.507053,0.468724 -12.76801,1.596637 -3.859438,1.925342 -7.360606,1.240407 -10.692862,-2.09185 C 9.4629608,80.55387 12.634078,70.214462 19.204545,69.884846 22.935822,69.697661 25.437164,70.112493 26.45,71.086459 26.9725,71.588906 31.9095,72 37.421112,72 l 10.021111,0 -6.471111,-6.559406 C 37.219527,61.637821 33.336065,58.641847 31.730418,58.311678 28.083402,57.56174 24,52.610882 24,48.939051 c 0,-1.794939 1.108796,-4.148456 2.897664,-6.150547 2.398729,-2.684644 3.622301,-3.243049 7.106133,-3.243049 3.363058,0 4.689356,0.559065 6.602336,2.783036 C 41.92276,43.859161 43,45.886003 43,46.832583 43,47.779164 46.15,51.679501 50,55.5 l 7,6.946361 0,-9.189254 c 0,-6.440517 -0.489037,-10.214775 -1.634892,-12.617658 -4.586609,-9.618218 7.509533,-18.49208 14.998528,-11.003085 1.45,1.45 2.688184,3.5875 2.751518,4.75 C 73.307248,37.912209 72.875619,40.449526 71.913541,41.45 71.411094,41.9725 71,46.9095 71,52.421112 l 0,10.021111 6.460513,-6.403087 c 3.553283,-3.521699 6.726626,-7.614687 7.051873,-9.09553 1.526189,-6.94869 10.737869,-9.875485 15.879374,-5.045297 5.51837,5.184248 3.76769,12.786453 -3.698364,16.059814 -2.306368,1.011187 -6.879309,4.584277 -10.162093,7.940199 L 80.562607,72 90.581303,72 c 5.741571,0 10.472497,-0.453805 11.081687,-1.062988 0.58464,-0.584643 2.48805,-1.103505 4.2298,-1.153027 10.71231,-0.304575 14.02554,13.179703 4.3648,17.764021 -3.1876,1.512617 -3.80022,1.516479 -7.64487,0.04819 C 99.91397,86.565536 95.267351,86 89.497871,86 l -8.935264,0 5.968696,6.101678 c 3.282784,3.355922 7.901029,6.948432 10.262768,7.983352 7.284139,3.19194 9.004719,10.93701 3.564949,16.04741 -5.109364,4.8 -14.325919,1.84772 -15.846634,-5.07605 -0.325247,-1.48084 -3.49859,-5.57383 -7.051873,-9.09553 L 71,95.557777 71,105.71987 c 0,5.69604 0.439482,10.43371 1,10.78013 0.55,0.33992 1,2.63796 1,5.10677 0,3.56952 -0.541855,4.9909 -2.646023,6.94098 -3.616439,3.3516 -9.527894,3.36924 -12.858764,0.0384 z m -11.416266,-5.00279 c -0.04342,-1.05416 0.192928,-1.64479 0.52522,-1.3125 0.332291,0.3323 0.367818,1.1948 0.07895,1.91667 -0.319226,0.79773 -0.556183,0.56078 -0.604167,-0.60417 z M 106,121.5 c 0.68469,-0.825 1.46989,-1.5 1.74489,-1.5 0.275,0 -0.0602,0.675 -0.74489,1.5 -0.68469,0.825 -1.46989,1.5 -1.74489,1.5 -0.275,0 0.0602,-0.675 0.74489,-1.5 z m 5.19495,-12 c -0.0204,-1.65 0.18706,-2.44606 0.46099,-1.76903 0.27392,0.67703 0.29059,2.02703 0.037,3 -0.25354,0.97297 -0.47766,0.41903 -0.49804,-1.23097 z m 0,-61 c -0.0204,-1.65 0.18706,-2.446064 0.46099,-1.769032 0.27392,0.677033 0.29059,2.027033 0.037,3 C 111.43945,50.703936 111.21533,50.15 111.19495,48.5 z M 46.078947,34.583333 c -0.04342,-1.054166 0.192928,-1.644791 0.52522,-1.3125 0.332291,0.332292 0.367818,1.194792 0.07895,1.916667 -0.319226,0.797733 -0.556183,0.560776 -0.604167,-0.604167 z"
         id="path2991"
         inkscape:connector-curvature="0" />
      <path
         style="fill:#050402"
         d="M 56.502229,137.4246 C 50.599095,134.34662 47,129.47006 47,124.54966 c 0,-3.09159 0.02925,-3.08948 -4.639756,-0.3347 -5.018444,2.96095 -12.810972,2.90566 -17.715823,-0.1257 -7.773593,-4.80435 -10.47695,-15.62331 -5.859381,-23.4495 C 20.003268,98.575014 21,96.743915 21,96.570648 21,96.397381 19.234824,95.973353 17.077387,95.628365 12.394146,94.879485 7.8439686,91.298304 5.6194567,86.610493 0.90316111,76.671638 7.0954139,63.994719 17.490499,62.307829 21.407089,61.672254 21.576082,61.346144 19.447743,58.530898 14.80423,52.388724 15.804918,42.528416 21.666667,36.666667 27.40839,30.924943 36.709426,29.958688 43.487389,34.39978 46.760126,36.544159 47,36.458668 47,33.147883 47,26.59862 55.780534,19.048453 63.434276,19.01645 69.392225,18.99154 75.595956,22.454411 78.514134,27.433906 79.88136,29.766901 81,32.648679 81,33.837858 c 0,2.523912 0.760488,2.65761 3.469102,0.609885 7.676193,-5.803239 20.376538,-2.448284 25.066818,6.621713 2.0929,4.047229 1.84106,11.768228 -0.53592,16.430544 -2.44378,4.793328 -2.45435,4.5 0.16214,4.5 1.18918,0 4.07096,1.11864 6.40395,2.485866 C 120.31853,67.270979 124,73.5401 124,78.847843 c 0,7.589154 -6.40193,15.709656 -13.25,16.806915 -2.0625,0.330472 -3.75,0.673196 -3.75,0.761608 0,0.08841 0.9,1.926048 2,4.083634 2.37698,4.66232 2.62882,12.38332 0.53592,16.43054 -4.62455,8.94289 -16.870683,12.37565 -24.69029,6.92103 -3.480177,-2.42762 -3.491179,-2.42322 -4.153459,1.65793 -1.669388,10.28723 -14.855473,16.78222 -24.189942,11.9151 z m 13.851748,-8.87685 C 72.458145,126.59767 73,125.17629 73,121.60677 c 0,-2.46881 -0.45,-4.76685 -1,-5.10677 -0.560518,-0.34642 -1,-5.08409 -1,-10.78013 l 0,-10.162093 6.460513,6.403083 c 3.553283,3.5217 6.726626,7.61469 7.051873,9.09553 1.520715,6.92377 10.73727,9.87605 15.846634,5.07605 5.43977,-5.1104 3.71919,-12.85547 -3.564949,-16.04741 C 94.432332,99.05011 89.814087,95.4576 86.531303,92.101678 L 80.562607,86 l 8.935264,0 c 5.76948,0 10.416099,0.565536 13.114849,1.596197 3.84465,1.468288 4.45727,1.464426 7.64487,-0.04819 9.66074,-4.584318 6.34751,-18.068596 -4.3648,-17.764021 -1.74175,0.04952 -3.64516,0.568384 -4.2298,1.153027 C 101.0538,71.546195 96.322874,72 90.581303,72 l -10.018696,0 5.968696,-6.101678 c 3.282784,-3.355922 7.855725,-6.929012 10.162093,-7.940199 7.466054,-3.273361 9.216734,-10.875566 3.698364,-16.059814 -5.141505,-4.830188 -14.353185,-1.903393 -15.879374,5.045297 -0.325247,1.480843 -3.49859,5.573831 -7.051873,9.09553 L 71,62.442223 71,52.421112 C 71,46.9095 71.411094,41.9725 71.913541,41.45 c 0.962078,-1.000474 1.393707,-3.537791 1.201613,-7.063636 -0.06333,-1.1625 -1.301518,-3.3 -2.751518,-4.75 C 62.874641,22.147369 50.778499,31.021231 55.365108,40.639449 56.510963,43.042332 57,46.81659 57,53.257107 L 57,62.446361 50,55.5 c -3.85,-3.820499 -7,-7.720836 -7,-8.667417 0,-0.94658 -1.07724,-2.973422 -2.393867,-4.504092 -1.91298,-2.223971 -3.239278,-2.783036 -6.602336,-2.783036 -3.483832,0 -4.707404,0.558405 -7.106133,3.243049 C 25.108796,44.790595 24,47.144112 24,48.939051 c 0,3.671831 4.083402,8.622689 7.730418,9.372627 1.605647,0.330169 5.489109,3.326143 9.240694,7.128916 L 47.442223,72 37.421112,72 C 31.9095,72 26.9725,71.588906 26.45,71.086459 25.437164,70.112493 22.935822,69.697661 19.204545,69.884846 12.634078,70.214462 9.4629608,80.55387 14.413878,85.504787 c 3.332256,3.332257 6.833424,4.017192 10.692862,2.09185 C 27.367697,86.468724 31.115993,86 37.87475,86 l 9.567473,0 -6.435479,6.493196 C 37.46723,96.064453 33.099767,99.472029 31.301269,100.06559 27.42706,101.34419 24,105.34434 24,108.58781 c 0,6.21878 5.62009,11.08125 11.527019,9.9731 C 39.056864,117.89871 43,113.95578 43,111.08832 43,110.18524 46.15,106.3205 50,102.5 l 7,-6.946361 0,9.642141 c 0,7.14868 -0.428514,10.38878 -1.657049,12.52938 -5.03675,8.77603 7.481093,17.8011 15.011026,10.82259 z"
         id="path2989"
         inkscape:connector-curvature="0" />
    </g>
  </g>
</svg>
